HIERARCHY
ROOT root
{
	OFFSET	0	13.1	24.9
	CHANNELS 6  Xposition Yposition Zposition Xrotation Yrotation Zrotation
	JOINT spine_1
	{
		OFFSET	0	9.99999	0
		CHANNELS 3  Xrotation Yrotation Zrotation
		JOINT spine_2
		{
			OFFSET	0	112	-10
			CHANNELS 3  Xrotation Yrotation Zrotation
			JOINT spine_3
			{
				OFFSET	0	206.5	19.3
				CHANNELS 3  Xrotation Yrotation Zrotation
				JOINT spine_4
				{
					OFFSET	0	110.4	14.6
					CHANNELS 3  Xrotation Yrotation Zrotation
					JOINT neck_1
					{
						OFFSET	0	71.8	-50.3
						CHANNELS 3  Xrotation Yrotation Zrotation
						JOINT neck_2
						{
							OFFSET	0	86.2	-25.8
							CHANNELS 3  Xrotation Yrotation Zrotation
							JOINT head_ee
							{
								OFFSET	0	179.8	-8.7
								CHANNELS 3  Xrotation Yrotation Zrotation
								End Site
								{
									OFFSET	1	0	0
								}
							}
						}
					}
					JOINT left_clavicle
					{
						OFFSET	-43.2	22.4	-70.8
						CHANNELS 3  Xrotation Yrotation Zrotation
						JOINT left_shoulder
						{
							OFFSET	-93.9	-5.79999	48.7
							CHANNELS 3  Xrotation Yrotation Zrotation
							JOINT left_elbow
							{
								OFFSET	-291.4	-30.8	15.2
								CHANNELS 3  Xrotation Yrotation Zrotation
								JOINT left_lowarm_twist
								{
									OFFSET	-110.7	-3.89999	13.6
									CHANNELS 3  Xrotation Yrotation Zrotation
									JOINT left_hand
									{
										OFFSET	-110.7	-3.89999	13.6
										CHANNELS 3  Xrotation Yrotation Zrotation
										JOINT left_ee
										{
											OFFSET	-80.8	-5.10001	12.1
											CHANNELS 3  Xrotation Yrotation Zrotation
											End Site
											{
												OFFSET	1	0	0
											}
										}
									}
								}
							}
						}
					}
					JOINT right_clavicle
					{
						OFFSET	43.2	22.4	-70.8
						CHANNELS 3  Xrotation Yrotation Zrotation
						JOINT right_shoulder
						{
							OFFSET	93.9	-5.79999	48.7
							CHANNELS 3  Xrotation Yrotation Zrotation
							JOINT right_elbow
							{
								OFFSET	291.4	-30.8	15.2
								CHANNELS 3  Xrotation Yrotation Zrotation
								JOINT right_lowarm_twist
								{
									OFFSET	110.7	-3.89999	13.6
									CHANNELS 3  Xrotation Yrotation Zrotation
									JOINT right_hand
									{
										OFFSET	110.7	-3.89999	13.6
										CHANNELS 3  Xrotation Yrotation Zrotation
										JOINT right_ee
										{
											OFFSET	80.8	-5.10001	12.1
											CHANNELS 3  Xrotation Yrotation Zrotation
											End Site
											{
												OFFSET	1	0	0
											}
										}
									}
								}
							}
						}
					}
				}
			}
		}
	}
	JOINT left_hip
	{
		OFFSET	-82.8	-127.5	0.300001
		CHANNELS 3  Xrotation Yrotation Zrotation
		JOINT left_knee
		{
			OFFSET	-28.2	-396.7	2.2
			CHANNELS 3  Xrotation Yrotation Zrotation
			JOINT left_ankle
			{
				OFFSET	-11.7	-411.3	35.4
				CHANNELS 3  Xrotation Yrotation Zrotation
				JOINT left_toes
				{
					OFFSET	0	-60	-88.6
					CHANNELS 3  Xrotation Yrotation Zrotation
					JOINT left_foot_ee
					{
						OFFSET	-22.5	-16.5	-42.2
						CHANNELS 3  Xrotation Yrotation Zrotation
						End Site
						{
							OFFSET	1	0	0
						}
					}
				}
			}
		}
	}
	JOINT right_hip
	{
		OFFSET	82.8	-127.5	0.300001
		CHANNELS 3  Xrotation Yrotation Zrotation
		JOINT right_knee
		{
			OFFSET	28.2	-396.7	2.2
			CHANNELS 3  Xrotation Yrotation Zrotation
			JOINT right_ankle
			{
				OFFSET	11.7	-411.3	35.4
				CHANNELS 3  Xrotation Yrotation Zrotation
				JOINT right_toes
				{
					OFFSET	0	-60	-88.6
					CHANNELS 3  Xrotation Yrotation Zrotation
					JOINT right_foot_ee
					{
						OFFSET	22.5	-16.5	-42.2
						CHANNELS 3  Xrotation Yrotation Zrotation
						End Site
						{
							OFFSET	1	0	0
						}
					}
				}
			}
		}
	}
}
MOTION
Frames: 15
Frame Time: 0.02
2613.85 697.139 -695.26 -176.673 -79.5165 -178.061 1.42633 -0.273526 -0.569313 1.42648 -0.236745 -0.585563 1.42896 -0.123878 -0.619343 1.42849 -0.220136 -0.592007 -10.0622 5.77 5.49943 -9.99706 7.15183 6.78964 -0.0 0.0 -0.0 0.614249 11.8498 2.43192 16.3741 -26.0276 69.3084 2.2714 -48.3645 1.02007 -16.5813 -0.869559 1.92627 -1.53735 1.6849 -9.55322 -0.0 0.0 -0.0 0.99249 5.51377 -1.34383 -17.1594 4.82603 -71.993 0.379424 10.6451 -0.0353487 0.467855 -0.0162496 0.0575422 0.058899 -20.5035 -8.61546 0.0 0.0 0.0 -15.6589 0.307738 8.48047 0.115893 -0.00478947 -0.0171399 38.2419 16.9598 -4.80263 -4.71973 0.0 0.0 -0.0 0.0 -0.0 33.6411 20.1353 -4.2871 -15.6053 -0.322085 -2.36576 41.1106 -6.5178 4.9547 17.673 -0.0 -0.0 0.0 0.0 0.0 
2637.54 694.666 -687.182 -176.462 -79.8085 -177.759 1.46507 -0.214126 -0.601618 1.46526 -0.17541 -0.614024 1.46719 -0.0587454 -0.635879 1.46666 -0.158431 -0.618622 -7.18196 4.98042 5.09728 -7.11579 5.58969 6.10208 -0.0 0.0 -0.0 0.0582047 11.7221 1.48352 15.1342 -26.0782 70.771 2.16476 -46.9937 0.941213 -17.4036 -0.926887 2.01458 -1.433 1.38014 -8.98894 -0.0 0.0 -0.0 0.858335 4.3236 -1.19997 -16.7316 5.35017 -72.9096 0.486244 13.5431 -0.0577364 0.6141 -0.0212324 0.0755558 -0.39816 -22.0606 -6.50664 0.0 0.0 0.0 -16.4632 -0.414471 7.27171 -0.63529 0.0256369 0.0941214 39.9739 19.3173 -5.01057 -4.51542 0.0 0.0 -0.0 0.0 -0.0 32.6617 20.5305 -4.50728 -17.07 -0.319013 -2.59045 41.037 -5.65585 4.94686 20.7555 -0.0 -0.0 0.0 0.0 0.0 
2658.72 697.593 -681.07 -174.418 -80.8775 -175.617 1.45705 -0.215482 -0.67036 1.45729 -0.17239 -0.682712 1.4594 -0.0429698 -0.702828 1.45874 -0.153426 -0.687222 -4.32055 4.98685 3.8771 -4.27683 6.18126 4.78798 -0.0 0.0 -0.0 -0.14336 11.0802 1.0673 12.8743 -26.0892 72.5072 2.05492 -45.5042 0.861862 -19.1586 -1.05346 2.20027 -1.34299 0.885025 -8.60661 -0.0 0.0 -0.0 0.953647 5.39631 -1.27795 -16.5525 4.51277 -74.1019 0.531674 14.7554 -0.0688426 1.07893 -0.0367637 0.132893 -0.193897 -21.0401 -7.3131 0.0 0.0 0.0 -16.9124 0.493704 7.03097 -1.74579 0.0679353 0.259295 41.1987 22.5051 -5.20395 -4.03901 0.0 0.0 -0.0 0.0 -0.0 32.5157 20.0055 -4.64805 -20.3718 -0.291033 -3.09622 41.0094 -6.79856 4.94691 22.3282 -0.0 -0.0 0.0 0.0 0.0 
2674.79 701.085 -677.442 -173.72 -80.8228 -174.785 1.43032 -0.118569 -0.760254 1.43064 -0.0699534 -0.766258 1.43162 0.0735479 -0.765921 1.4308 -0.0483344 -0.767924 -2.97029 5.08988 3.14367 -2.93327 6.79682 4.00394 -0.0 0.0 -0.0 -0.298404 11.4696 0.852194 11.1419 -26.1626 73.5374 1.93853 -43.8349 0.780033 -20.2418 -1.13441 2.31293 -1.27227 0.263809 -8.40934 -0.0 0.0 -0.0 1.14036 5.61624 -1.63104 -15.6699 4.3347 -74.166 0.588814 16.2611 -0.0841218 1.0693 -0.0364466 0.131703 -0.443233 -21.4232 -5.98956 0.0 0.0 0.0 -16.5249 1.27354 7.2505 -2.15419 0.0826837 0.320237 38.0438 26.5279 -5.02558 -4.58833 0.0 0.0 -0.0 0.0 -0.0 32.0727 19.8049 -5.02138 -21.5196 -0.274485 -3.27157 41.0725 -6.55508 4.95157 23.6626 -0.0 -0.0 0.0 0.0 0.0 
2699.55 698.335 -671.801 -177.42 -81.7411 -177.871 1.30383 -0.15771 -1.00534 1.30439 -0.093421 -1.01334 1.30614 0.0985889 -1.01285 1.30471 -0.0626004 -1.01571 -1.32963 4.43169 3.2441 -1.29386 5.3674 3.97878 -0.0 0.0 -0.0 -0.582585 11.0997 0.323754 8.74615 -25.9374 74.2561 1.81174 -41.9035 0.693763 -21.1415 -1.20326 2.40533 -1.21932 0.566501 -7.91673 -0.0 0.0 -0.0 0.951955 5.60182 -1.25297 -14.2539 4.39918 -75.0237 0.645485 17.732 -0.100689 1.39876 -0.0471797 0.172415 -0.438262 -21.3129 -5.97498 0.0 0.0 0.0 -17.1926 1.52148 5.48997 -4.22767 0.150833 0.63114 39.0197 26.944 -5.13824 -3.72583 0.0 0.0 -0.0 0.0 -0.0 31.3857 20.2586 -5.83283 -24.8922 -0.205584 -3.78444 41.6324 -6.0278 4.99734 24.8926 -0.0 -0.0 0.0 0.0 0.0 
2721.43 700.642 -665.06 -179.783 -82.3794 179.539 1.08205 -0.293122 -0.90949 1.08248 -0.234657 -0.926297 1.08643 -0.0528461 -0.954093 1.08522 -0.202857 -0.933776 0.205516 4.01193 2.51089 0.232776 5.07719 3.12094 -0.0 0.0 -0.0 -0.627747 11.2372 0.265132 6.86206 -25.732 74.7815 1.50835 -36.7643 0.501264 -22.3917 -1.30134 2.53194 -1.18557 0.505649 -7.71674 -0.0 0.0 -0.0 1.34677 4.50381 -2.15707 -12.7177 5.38911 -74.2956 0.680303 18.624 -0.111551 1.26519 -0.0428563 0.155903 -0.403363 -21.021 -6.06505 0.0 0.0 0.0 -17.5004 4.12767 5.36803 -5.86672 0.196709 0.878489 36.5266 27.8551 -4.91429 -3.14304 0.0 0.0 -0.0 0.0 -0.0 29.7885 20.0508 -5.68176 -26.946 -0.148874 -4.09451 41.1763 -6.57756 4.9604 26.728 -0.0 -0.0 0.0 0.0 0.0 
2743.33 706.193 -660.837 169.665 -81.0967 168.775 0.758936 0.068455 -0.671101 0.75918 0.111019 -0.665385 0.757921 0.240082 -0.630417 0.757393 0.137508 -0.66042 -0.985858 3.19926 2.19735 -0.968133 3.96768 2.71505 -0.0 0.0 -0.0 -0.740358 11.4154 0.0980951 5.34246 -25.3498 76.0195 1.2173 -31.0894 0.338623 -24.8307 -1.50056 2.7727 -1.25047 1.34537 -7.77685 -0.0 0.0 -0.0 0.799148 4.3505 -1.07895 -10.3904 6.37943 -76.0778 0.740239 20.1376 -0.131443 1.37981 -0.0465686 0.170072 -0.500461 -21.4622 -5.66833 0.0 0.0 0.0 -15.9184 6.30082 4.57289 -12.2737 0.307681 1.85486 30.2168 27.8509 -4.20864 -2.18581 0.0 0.0 -0.0 0.0 -0.0 27.1235 21.1619 -6.79887 -28.9196 -0.0839285 -4.39043 40.7569 -3.9718 4.92327 27.7077 -0.0 -0.0 0.0 0.0 0.0 
2753.43 710.072 -656.076 166.243 -80.733 165.204 0.565688 0.041348 -0.465897 0.565806 0.0709101 -0.462322 0.565255 0.162179 -0.438712 0.564998 0.0908581 -0.458819 -0.691077 2.4805 1.23952 -0.681912 3.437 1.60699 -0.0 0.0 -0.0 -0.815407 11.5259 -0.0138325 4.15711 -25.4843 76.7762 0.947166 -25.1355 0.211161 -26.3957 -1.63374 2.92268 -1.28712 2.38649 -7.55388 -0.0 0.0 -0.0 0.506707 4.39986 -0.489417 -5.18173 7.40309 -77.8754 0.839584 22.5825 -0.167635 1.66197 -0.0555859 0.204983 -0.596995 -21.868 -5.26537 0.0 0.0 0.0 -15.7276 7.74309 4.39115 -15.213 0.321932 2.30556 26.1567 27.2898 -3.70256 -1.06505 0.0 0.0 -0.0 0.0 -0.0 26.0138 21.7811 -7.30136 -30.0614 -0.0417097 -4.56057 39.5468 -2.11093 4.82453 27.9273 -0.0 -0.0 0.0 0.0 0.0 
2766.97 713.015 -648.176 167.344 -78.7408 166.312 0.403837 0.241002 -0.428865 0.4039 0.267803 -0.412661 0.40194 0.346115 -0.349588 0.401884 0.286561 -0.399863 -1.01501 2.16804 0.8127 -1.00837 3.23504 1.12161 -0.0 0.0 -0.0 -1.26558 11.7569 -0.74086 2.94601 -25.3601 77.3681 0.735284 -20.0135 0.129742 -27.5453 -1.73417 3.03052 -1.2728 3.24726 -7.06984 -0.0 0.0 -0.0 0.497672 6.14091 -0.27737 -1.76936 8.11439 -79.053 0.877198 23.4865 -0.182353 2.04582 -0.0675762 0.252546 -0.617146 -22.1178 -5.24884 0.0 0.0 0.0 -14.5369 8.76649 3.32499 -18.1693 0.312935 2.75901 23.8422 27.3957 -3.41326 -0.224964 0.0 0.0 -0.0 0.0 -0.0 24.3816 22.2098 -7.95304 -28.522 -0.0978322 -4.331 39.9919 -0.277621 4.87327 28.0926 -0.0 -0.0 0.0 0.0 0.0 
2779.06 713.557 -645.924 164.653 -78.234 163.138 0.0712892 0.233211 -0.125982 0.0712657 0.240755 -0.110887 0.070776 0.258612 -0.0581279 0.0708559 0.246186 -0.0982415 -2.32225 1.53219 0.451934 -2.31942 2.41591 0.681806 -0.0 0.0 -0.0 -1.15491 11.8754 -0.537202 1.60435 -25.2467 77.3979 0.552936 -15.3183 0.0743589 -28.6566 -1.8333 3.13285 -1.34916 3.83879 -7.31044 -0.0 0.0 -0.0 0.298171 5.99266 0.109452 1.44379 8.77928 -79.9891 0.999598 26.3428 -0.233932 2.23572 -0.0733903 0.276105 -0.651318 -22.1605 -5.0668 0.0 0.0 0.0 -13.5926 9.47927 2.47499 -20.3681 0.291081 3.09565 20.8376 27.1467 -3.01706 0.11066 -0.0 -0.0 -0.0 0.0 -0.0 22.9951 23.0118 -7.48187 -29.9051 -0.0476905 -4.53732 39.0036 1.03598 4.79767 27.9957 -0.0 -0.0 0.0 0.0 0.0 
2785.02 716.078 -638.593 166.182 -75.8816 164.74 -0.152933 0.308278 0.0238256 -0.152985 0.306137 0.043394 -0.152771 0.289893 0.10754 -0.152658 0.303239 0.0604067 -2.32174 2.72949 1.75336 -2.31028 3.55604 2.2077 -0.0 0.0 -0.0 -1.19604 12.0874 -0.575555 0.0989939 -24.5182 77.548 0.355095 -9.97668 0.030994 -28.6467 -1.8324 3.13194 -1.35234 4.16006 -7.18562 -0.0 0.0 -0.0 0.732263 9.64823 -0.371081 4.16274 9.8456 -80.6721 1.08664 28.2923 -0.273882 4.35108 -0.132854 0.53976 -0.37972 -21.5756 -6.42387 0.0 0.0 0.0 -7.58798 10.2948 -0.891144 -29.6136 0.0586719 4.49394 22.0239 27.2542 -3.17513 0.400661 -0.0 -0.0 -0.0 0.0 -0.0 20.8803 23.2537 -8.07551 -26.4118 -0.164695 -4.01405 39.7144 5.57763 4.91585 26.8176 -0.0 -0.0 0.0 0.0 0.0 
2789.05 721.755 -631.391 168.154 -75.7381 166.686 -0.378852 0.242934 0.187576 -0.378861 0.230505 0.202655 -0.378024 0.181134 0.247774 -0.378044 0.217992 0.216058 -2.11504 3.18474 2.11205 -2.09879 4.08368 2.64133 -0.0 0.0 -0.0 -1.13488 12.2153 -0.454535 -1.60314 -24.0426 77.1211 0.215067 -6.08137 0.0114243 -29.0169 -1.86586 3.16562 -1.33638 4.48837 -6.93059 -0.0 0.0 -0.0 1.21234 11.9276 -1.12707 7.13823 9.82654 -81.5179 1.17069 30.1095 -0.314896 5.56492 -0.162565 0.691968 -0.307522 -21.1291 -6.67458 0.0 0.0 0.0 -4.42509 10.8549 -2.56354 -33.344 -0.0984768 5.04472 21.7462 27.1095 -3.1359 0.352303 -0.0 -0.0 -0.0 0.0 -0.0 20.0432 23.3662 -8.71293 -23.5628 -0.236348 -3.58276 39.5854 7.46999 4.93756 25.9722 -0.0 -0.0 0.0 0.0 0.0 
2792.17 722.036 -626.89 169.806 -75.4739 168.624 -0.363883 0.323249 0.278991 -0.363891 0.304841 0.298995 -0.362252 0.232937 0.357863 -0.362316 0.286531 0.316584 -2.17609 3.8938 2.49369 -2.1526 5.06811 3.13727 -0.0 0.0 -0.0 -1.3538 12.6229 -0.760236 -2.86524 -23.5362 76.9912 0.188243 -5.32755 0.00875804 -29.2257 -1.88483 3.18451 -1.26584 5.13572 -6.17067 -0.0 0.0 -0.0 1.56347 13.8478 -1.66725 9.24816 10.4277 -81.2133 1.24256 31.6122 -0.351766 6.67066 -0.186817 0.831133 -0.149767 -20.2609 -7.27527 0.0 0.0 0.0 -1.74097 11.1682 -3.69022 -37.4768 -0.314098 5.6418 21.5778 27.0053 -3.11177 0.24535 -0.0 -0.0 -0.0 0.0 -0.0 19.1912 23.4088 -8.91062 -21.1267 -0.280545 -3.21158 38.9861 9.38541 4.92401 25.3781 -0.0 -0.0 0.0 0.0 0.0 
2806.04 726.629 -623.172 167.645 -74.2828 166.214 -0.947622 0.354558 0.585215 -0.947487 0.316601 0.606589 -0.943916 0.171163 0.662486 -0.944424 0.27364 0.627142 -2.01546 3.89553 1.27633 -1.9963 6.02433 1.85465 -0.0 0.0 -0.0 -1.37284 13.4348 -0.670137 -6.02186 -23.175 76.6176 0.197329 -5.58311 0.00962183 -29.3608 -1.89714 3.1967 -1.27294 5.89202 -5.87533 -0.0 0.0 -0.0 1.80957 15.1543 -2.05592 10.7449 10.4423 -81.595 1.33687 33.5126 -0.402528 7.03734 -0.194265 0.87738 -0.0351149 -19.4152 -7.63869 0.0 0.0 0.0 2.61625 11.5936 -5.48627 -39.7551 -0.451264 5.96398 23.5316 25.8879 -3.3417 0.200452 -0.0 -0.0 -0.0 0.0 -0.0 16.8062 23.724 -8.71865 -20.1173 -0.294227 -3.0573 38.732 12.0875 4.96691 25.0152 -0.0 -0.0 0.0 0.0 0.0 
2814.08 729.063 -618.596 166.62 -74.9279 165.142 -0.913192 0.349806 0.764694 -0.912917 0.300439 0.785402 -0.908458 0.115483 0.832934 -0.909342 0.245576 0.804245 -2.13867 3.92903 1.26025 -2.11951 6.10523 1.84677 -0.0 0.0 -0.0 -1.6486 14.1208 -1.01611 -8.45219 -22.7509 76.1826 0.212967 -6.02245 0.011203 -29.8063 -1.93793 3.23669 -1.20776 6.17782 -5.31819 -0.0 0.0 -0.0 2.19367 16.1265 -2.77539 13.8246 10.4797 -81.2772 1.43728 35.4483 -0.459384 7.93264 -0.211205 0.99049 0.112371 -18.5018 -8.18499 0.0 0.0 0.0 5.34396 11.8719 -6.56055 -41.5624 -0.569144 6.21559 23.5167 26.5566 -3.35352 0.0678663 -0.0 -0.0 -0.0 0.0 -0.0 15.367 23.753 -8.82084 -18.7428 -0.30848 -2.8469 38.45 13.618 4.98414 24.7344 -0.0 -0.0 0.0 0.0 0.0 
